<?xml version="1.0" encoding="UTF-8" standalone="no"?>
<!DOCTYPE svg PUBLIC "-//W3C//DTD SVG 1.1//EN" "http://www.w3.org/Graphics/SVG/1.1/DTD/svg11.dtd">
<svg width="100%" height="100%" viewBox="0 0 1254 1254" version="1.1" xmlns="http://www.w3.org/2000/svg" xmlns:xlink="http://www.w3.org/1999/xlink" xml:space="preserve" xmlns:serif="http://www.serif.com/" style="fill-rule:evenodd;clip-rule:evenodd;stroke-linejoin:round;stroke-miterlimit:2;">
    <g>
        <path d="M764.5,191.5L768.5,191.5C768.665,207.496 776.665,216.329 792.5,218C793.833,219 793.833,220 792.5,221C777.108,222.558 769.108,231.058 768.5,246.5L764.5,246.5C764.84,230.839 757.174,222.506 741.5,221.5C740.571,220.311 740.238,218.978 740.5,217.5C756.43,216.234 764.43,207.567 764.5,191.5Z" style="fill:rgb(177,154,248);"/>
    </g>
    <g>
        <path d="M684.5,757.5C660.821,761.464 637.154,762.797 613.5,761.5C573.883,757.767 537.216,745.433 503.5,724.5C440.426,685.726 404.593,629.393 396,555.5C394.798,539.026 395.798,522.692 399,506.5C405.459,481.204 411.793,455.871 418,430.5C419.952,410.07 422.619,389.736 426,369.5C431.607,346.28 442.441,325.947 458.5,308.5C459.562,296.866 461.562,285.533 464.5,274.5C465.924,272.485 466.59,270.152 466.5,267.5C469.789,253.471 474.956,240.138 482,227.5C487.627,219.102 493.96,218.435 501,225.5C514.156,243.474 524.99,262.807 533.5,283.5C544.557,285.381 555.557,287.381 566.5,289.5C579.072,292.919 591.072,297.919 602.5,304.5C616.539,314.041 626.705,326.707 633,342.5C635.878,352.467 639.545,362.134 644,371.5C650.373,376.844 656.707,382.177 663,387.5C664.763,396.573 663.096,404.906 658,412.5C652.886,434.954 639.719,450.787 618.5,460C608.934,463.046 599.267,465.713 589.5,468C572.596,475.94 568.763,488.106 578,504.5C587.539,514.098 599.039,517.598 612.5,515C666.9,496.553 716.567,504.886 761.5,540C770.541,548.526 778.208,558.026 784.5,568.5C790.753,577.678 795.42,587.678 798.5,598.5C801.326,608.631 802.992,618.964 803.5,629.5L803.5,660.5C802.325,660.281 801.325,660.614 800.5,661.5C802.173,663.523 802.84,665.856 802.5,668.5C801.606,677.97 799.939,687.303 797.5,696.5C796.651,698.888 795.651,701.221 794.5,703.5C792.573,706.767 790.239,709.767 787.5,712.5C758.035,732.228 726.035,746.561 691.5,755.5C690.467,756.23 691.5,755.5 691.5,755.5C691.5,755.5 685.792,757.544 684.5,757.5Z" style="fill:rgb(31,18,73);"/>
    </g>
    <g>
        <path d="M602.5,304.5C591.072,297.919 579.072,292.919 566.5,289.5C567.675,289.719 568.675,289.386 569.5,288.5C575.789,268.041 588.456,252.875 607.5,243C610.834,241.788 613.334,242.621 615,245.5C617.006,260.408 615.006,274.741 609,288.5C606.544,293.741 604.377,299.075 602.5,304.5Z" style="fill:rgb(177,154,248);"/>
    </g>
    <g>
        <path d="M466.5,267.5C466.59,270.152 465.924,272.485 464.5,274.5C464.41,271.848 465.076,269.515 466.5,267.5Z" style="fill:rgb(95,85,125);"/>
    </g>
    <g>
        <path d="M861.5,316.5C862.496,316.414 863.329,316.748 864,317.5C865.099,327.685 868.432,337.018 874,345.5C881.866,352.266 891.033,355.932 901.5,356.5C901.762,357.978 901.429,359.311 900.5,360.5C889.951,361.51 880.784,365.51 873,372.5C867.533,380.273 864.7,388.939 864.5,398.5C862.856,398.714 861.356,398.38 860,397.5C859.078,375.302 847.578,363.302 825.5,361.5C822.208,360.109 821.875,358.276 824.5,356C831.517,355.158 838.183,353.158 844.5,350C849.445,347.054 852.945,342.888 855,337.5C856.988,330.345 859.154,323.345 861.5,316.5Z" style="fill:rgb(177,154,248);"/>
    </g>
    <g>
        <path d="M578.5,358.5C584.434,357.889 590.1,358.722 595.5,361C599.795,364.093 601.462,368.26 600.5,373.5C592.658,368.748 584.324,364.748 575.5,361.5C575.167,361.167 574.833,360.833 574.5,360.5C575.949,359.828 577.282,359.161 578.5,358.5Z" style="fill:rgb(139,105,213);"/>
    </g>
    <g>
        <path d="M449.5,446.5C447.533,446.739 445.699,446.406 444,445.5C443.667,447.833 443.333,450.167 443,452.5C442.505,450.527 442.338,448.527 442.5,446.5L439.5,446.5C438.899,450.29 439.899,453.456 442.5,456C441.289,456.893 441.289,457.726 442.5,458.5C443.258,457.189 444.258,456.689 445.5,457C444.809,458.067 444.309,459.234 444,460.5C443.667,460.167 443.333,459.833 443,459.5C442.242,461.769 442.409,463.936 443.5,466C442.5,466.667 441.5,466.667 440.5,466C441.337,464.989 441.67,463.822 441.5,462.5L437.5,462.5C438.608,460.305 438.441,458.305 437,456.5C435.881,459.057 435.715,461.557 436.5,464C436,464.5 435.5,465 435,465.5C434.51,464.207 434.343,462.873 434.5,461.5C432.058,461.881 431.391,461.214 432.5,459.5C431.224,458.355 429.891,458.355 428.5,459.5C427.679,456.553 427.179,453.553 427,450.5C425.187,451.609 424.354,450.942 424.5,448.5C427.964,449.91 431.297,449.577 434.5,447.5C435.62,448.833 436.953,449.333 438.5,449C437.57,447.605 437.57,446.105 438.5,444.5C438.471,442.971 437.804,441.804 436.5,441C440.798,437.774 440.465,435.608 435.5,434.5C435.649,435.552 435.483,436.552 435,437.5C433.758,435.459 431.925,434.293 429.5,434C430.438,432.937 431.438,431.77 432.5,430.5C431.198,428.799 429.531,427.632 427.5,427C428.784,421.993 431.45,421.493 435.5,425.5C436.086,425.291 436.586,424.957 437,424.5C437.333,426.5 437.667,428.5 438,430.5C439.067,429.809 440.234,429.309 441.5,429C440.692,428.692 440.025,428.192 439.5,427.5C439.846,426.304 440.346,426.304 441,427.5C441.667,425.833 441.667,424.167 441,422.5C440.667,423.5 440.333,424.5 440,425.5C439.749,423.567 439.249,421.734 438.5,420C439.249,418.266 439.749,416.433 440,414.5C440.649,417.937 441.149,418.104 441.5,415C441.333,414.167 441.167,413.333 441,412.5C440.086,413.654 439.253,413.487 438.5,412C439.343,410.213 439.51,408.38 439,406.5C440.333,409.167 441.667,409.167 443,406.5C443.638,407.609 444.138,408.775 444.5,410C443.833,413.333 443.167,416.667 442.5,420C442.903,421.473 443.57,422.806 444.5,424C442.006,426.244 442.006,428.577 444.5,431C443.712,434.076 443.212,437.242 443,440.5C441.456,437.736 440.289,437.903 439.5,441C440.536,442.617 441.703,442.784 443,441.5C443.535,443.271 444.369,443.604 445.5,442.5C443.672,438.913 444.339,436.079 447.5,434C446.707,432.915 446.04,431.748 445.5,430.5C446.123,427.785 446.457,425.118 446.5,422.5C448.486,425.59 448.819,428.923 447.5,432.5C450.336,433.776 453.336,434.442 456.5,434.5L456.5,439.5C461.249,440.327 462.083,442.327 459,445.5C458.737,442.296 457.07,440.296 454,439.5C453.717,441.602 454.55,443.269 456.5,444.5C456.167,444.833 455.833,445.167 455.5,445.5C453.618,444.907 451.785,444.24 450,443.5C449.517,444.448 449.351,445.448 449.5,446.5Z" style="fill:rgb(31,18,68);"/>
    </g>
    <g>
        <path d="M456.5,484.5C455.234,483.91 453.901,483.41 452.5,483C453.524,481.633 453.024,480.8 451,480.5C449.189,481.424 449.355,482.257 451.5,483C447.848,483.499 444.182,483.665 440.5,483.5L440.5,488.5C442.288,488.785 443.955,488.452 445.5,487.5C444.02,486.887 442.687,486.554 441.5,486.5C445.245,483.545 446.912,484.212 446.5,488.5C448.288,488.215 449.955,488.548 451.5,489.5C451.421,491.929 451.755,494.429 452.5,497C451,497.833 449.833,499 449,500.5C447.833,499 446.667,497.5 445.5,496C447.367,495.289 448.867,495.789 450,497.5C449.351,495.168 449.518,492.834 450.5,490.5C448.78,490.254 446.78,490.254 444.5,490.5L444.5,495.5C443.127,495.343 441.793,495.51 440.5,496C438.759,497.62 436.925,499.12 435,500.5C434.626,499.584 434.126,498.75 433.5,498C431.925,498.379 430.425,498.212 429,497.5L429,501.5C428.075,500.953 427.242,500.287 426.5,499.5C425.45,495.785 425.45,491.785 426.5,487.5C427.167,490.5 427.833,493.5 428.5,496.5C430.042,495.253 431.542,495.253 433,496.5C432.402,493.839 432.568,491.173 433.5,488.5C434.242,490.108 434.409,491.775 434,493.5C435.626,493.146 437.459,493.146 439.5,493.5C438.607,487.911 438.441,482.577 439,477.5C437.286,476.075 435.953,476.408 435,478.5C434.333,477.167 434.333,475.833 435,474.5C435.414,474.957 435.914,475.291 436.5,475.5C437.623,473.711 438.956,473.378 440.5,474.5C440.291,475.086 439.957,475.586 439.5,476C441.101,476.273 442.601,476.773 444,477.5C444.49,476.207 444.657,474.873 444.5,473.5C445.675,473.719 446.675,473.386 447.5,472.5C446.167,470.833 446.167,469.167 447.5,467.5C446.675,466.614 445.675,466.281 444.5,466.5L444.5,461.5L448.5,461.5L448.5,466.5C449.552,466.649 450.552,466.483 451.5,466C449.363,463.821 449.029,461.321 450.5,458.5C451.451,459.326 452.451,459.492 453.5,459C451.485,457.445 451.152,455.611 452.5,453.5C453.451,454.326 454.451,454.492 455.5,454C454.809,452.933 454.309,451.766 454,450.5C449.37,452.366 447.87,451.033 449.5,446.5C451.451,446.227 452.951,446.893 454,448.5C456.341,446.228 459.008,445.894 462,447.5C462.833,447.833 463.667,448.167 464.5,448.5C464.062,449.506 463.396,449.506 462.5,448.5C459.745,450.996 460.412,451.996 464.5,451.5C468.899,451.472 469.232,450.972 465.5,450C467.112,449.28 468.612,449.446 470,450.5C470.667,447.833 471.333,447.833 472,450.5C472.445,448.406 471.612,446.906 469.5,446C466.765,446.198 464.099,446.031 461.5,445.5C463.045,444.548 464.712,444.215 466.5,444.5L466.5,439.5L463.5,439.5C463.762,438.022 463.429,436.689 462.5,435.5C460.587,433.709 458.92,431.709 457.5,429.5C457.833,429.167 458.167,428.833 458.5,428.5C460.946,431.217 463.28,434.05 465.5,437C466.448,437.483 467.448,437.649 468.5,437.5C468.77,441.206 470.603,442.539 474,441.5C477.466,443.181 477.3,444.181 473.5,444.5C474.827,448.83 474.827,453.163 473.5,457.5C475.582,457.472 477.416,458.139 479,459.5C479.483,458.552 479.649,457.552 479.5,456.5C477.335,456.884 475.668,456.217 474.5,454.5C475.262,454.089 476.262,453.923 477.5,454C476.426,453.261 475.759,452.261 475.5,451C477.444,448.958 479.277,446.792 481,444.5C480.689,445.935 480.855,447.268 481.5,448.5C483.353,449.76 485.186,449.76 487,448.5C487.692,449.025 488.192,449.692 488.5,450.5C485.926,452.861 483.759,455.528 482,458.5C481.667,457.833 481.333,457.167 481,456.5C480.333,457.833 480.333,459.167 481,460.5C481.414,460.043 481.914,459.709 482.5,459.5C483.833,462.833 483.833,466.167 482.5,469.5C481.5,468.167 480.5,468.167 479.5,469.5C478.289,468.726 478.289,467.893 479.5,467C476.179,464.907 473.013,465.074 470,467.5C469.508,466.451 469.674,465.451 470.5,464.5C469.833,464.167 469.167,463.833 468.5,463.5C463.707,463.414 459.04,463.58 454.5,464C456.107,465.049 456.773,466.549 456.5,468.5L461.5,468.5C461.714,470.144 461.38,471.644 460.5,473C462.367,473.711 463.867,473.211 465,471.5C465.886,474.44 465.052,475.44 462.5,474.5C461.702,476.078 461.202,477.744 461,479.5C459.951,478.483 458.784,478.316 457.5,479C458.167,479.333 458.833,479.667 459.5,480C457.561,480.908 456.561,482.408 456.5,484.5Z" style="fill:rgb(31,18,68);"/>
    </g>
    <g>
        <path d="M312.5,626.5C309.957,614.448 307.29,602.448 304.5,590.5C304.698,585.25 304.031,580.25 302.5,575.5C300.803,560.559 300.136,545.559 300.5,530.5C300.105,524.238 300.772,518.238 302.5,512.5C303.092,509.873 303.425,507.206 303.5,504.5C303.963,501.518 304.296,498.518 304.5,495.5C304.294,492.505 304.96,489.838 306.5,487.5C314.857,444.243 332.024,404.909 358,369.5C344.099,396.019 333.433,424.019 326,453.5C324.188,462.033 322.688,470.7 321.5,479.5C321.612,485.726 320.946,491.726 319.5,497.5C319.768,499.099 319.434,500.432 318.5,501.5C318.265,518.55 318.932,535.55 320.5,552.5C321.215,553.512 320.739,553.604 321.072,554.776C321.402,555.939 322.545,558.18 322.5,559.5C341.116,663.957 396.116,742.79 487.5,796C546.771,828.991 610.104,841.324 677.5,833C582.891,862.057 496.558,846.39 418.5,786C370.272,747.034 336.272,698.201 316.5,639.5C314.39,635.498 313.057,631.165 312.5,626.5Z" style="fill:rgb(177,154,248);"/>
    </g>
    <g>
        <path d="M756.5,449.5L759.5,449.5C759.523,451.927 760.023,454.26 761,456.5C763.642,458.893 766.475,460.893 769.5,462.5C762.844,463.817 759.51,467.817 759.5,474.5L756.5,474.5C756.006,468.336 752.673,464.669 746.5,463.5C745.614,462.675 745.281,461.675 745.5,460.5C752.857,460.476 756.524,456.809 756.5,449.5Z" style="fill:rgb(177,154,248);"/>
    </g>
    <g>
        <path d="M456.5,484.5C458.568,485.521 460.568,486.354 462.5,487C461.304,483.303 461.804,479.803 464,476.5C464.789,480.091 464.622,483.591 463.5,487C465.353,488.669 467.353,488.835 469.5,487.5C468.754,486.264 468.421,484.93 468.5,483.5L465.5,483.5C465.337,481.143 465.503,478.81 466,476.5C466.494,478.134 466.66,479.801 466.5,481.5C468.199,481.66 469.866,481.494 471.5,481C471.167,480.667 470.833,480.333 470.5,480C472.577,479.193 474.411,478.026 476,476.5C477.667,477.833 479.333,479.167 481,480.5C481.687,478.432 481.52,476.432 480.5,474.5C481.325,473.614 482.325,473.281 483.5,473.5C482.629,476.062 482.629,478.728 483.5,481.5C484.93,481.579 486.264,481.246 487.5,480.5C488.287,481.242 488.953,482.075 489.5,483C484.515,484.473 482.849,487.639 484.5,492.5C485.5,493.833 486.5,493.833 487.5,492.5C488.386,493.325 488.719,494.325 488.5,495.5C492.306,496.813 491.973,497.98 487.5,499C488.517,500.049 488.684,501.216 488,502.5C487.333,503.833 486.667,503.833 486,502.5C485.508,501.451 485.674,500.451 486.5,499.5C485.758,498.713 484.925,498.047 484,497.5C483.163,499.821 482.83,502.155 483,504.5C483.333,503.833 483.667,503.167 484,502.5C484.908,504.439 486.408,505.439 488.5,505.5L488.5,510.5L483.5,510.5L483.5,507.5C480.072,508.343 476.738,508.676 473.5,508.5C475.797,510.319 478.131,510.985 480.5,510.5C477.972,511.816 477.972,512.983 480.5,514C478.66,514.012 476.827,514.846 475,516.5C473.799,513.29 471.799,510.623 469,508.5C468.508,509.549 468.674,510.549 469.5,511.5C468.009,512.244 466.509,512.91 465,513.5C461.855,512.929 458.855,512.929 456,513.5C454.686,512.687 453.519,511.687 452.5,510.5C451.391,511.59 450.391,511.59 449.5,510.5C451.019,508.444 451.853,506.11 452,503.5C454.862,505.07 457.695,506.737 460.5,508.5C461.198,505.731 462.532,503.398 464.5,501.5L460.5,501.5C461.938,498.917 461.604,496.583 459.5,494.5C460.5,493.833 461.5,493.167 462.5,492.5C461.397,492.002 460.397,491.669 459.5,491.5C460.729,490.719 462.062,490.219 463.5,490C461.132,489.144 458.798,488.31 456.5,487.5L456.5,484.5Z" style="fill:rgb(31,18,69);"/>
    </g>
    <g>
        <path d="M942.5,476.5C946.473,476.311 948.806,478.144 949.5,482C949.151,487.09 946.485,488.757 941.5,487C937.514,483.105 937.847,479.605 942.5,476.5Z" style="fill:rgb(177,153,248);"/>
    </g>
    <g>
        <path d="M904.5,523.5C910.83,522.666 913.663,525.333 913,531.5C908.974,535.631 905.307,535.298 902,530.5C901.683,527.793 902.516,525.46 904.5,523.5Z" style="fill:rgb(177,154,248);"/>
    </g>
    <g>
        <path d="M584.5,530.5C588.5,529.833 590.167,531.5 589.5,535.5C593.5,534.833 595.167,536.5 594.5,540.5C592.712,540.785 591.045,540.452 589.5,539.5C590.326,538.549 590.492,537.549 590,536.5C588.333,537.5 586.667,538.5 585,539.5C584.505,541.473 584.338,543.473 584.5,545.5C586.857,545.337 589.19,545.503 591.5,546C589.893,547.049 589.227,548.549 589.5,550.5L586.5,550.5L586.5,547.5L582.5,547.5L582.5,542.5C578.877,542.649 578.543,543.816 581.5,546C580.606,547.396 579.939,548.896 579.5,550.5C580.69,552.359 580.69,554.192 579.5,556C579.667,556.5 579.833,557 580,557.5C580.915,556.672 581.581,555.672 582,554.5C582.825,556.701 582.325,558.534 580.5,560C584.762,559.98 588.595,561.147 592,563.5C593.356,562.62 594.856,562.286 596.5,562.5L596.5,565.5C599.999,565.741 600.332,564.908 597.5,563C599.769,562.242 601.936,562.409 604,563.5C603.872,561.555 604.038,559.722 604.5,558C606.833,557.333 609.167,557.333 611.5,558C610.1,559.438 608.433,560.271 606.5,560.5L606.5,569.5C604.856,569.286 603.356,569.62 602,570.5C601.808,572.577 601.308,574.577 600.5,576.5C599.749,575.624 599.249,574.624 599,573.5C596.26,574.144 593.76,575.311 591.5,577C594.936,576.652 598.269,576.819 601.5,577.5L601.5,582.5C606.033,580.87 607.366,582.37 605.5,587C607.424,587.179 609.091,587.346 610.5,587.5C608.977,589.283 606.977,589.949 604.5,589.5C604.313,587.436 603.813,585.436 603,583.5C601.951,584.517 600.784,584.684 599.5,584C600.451,583.282 600.617,582.449 600,581.5C599.259,582.641 598.425,582.641 597.5,581.5C595.815,584.027 594.149,586.527 592.5,589C593.793,589.49 595.127,589.657 596.5,589.5C596.665,592.518 596.498,595.518 596,598.5C594.812,597.437 594.312,596.103 594.5,594.5C591.753,594.187 589.086,594.52 586.5,595.5C586.202,597.547 586.535,599.714 587.5,602C587.646,604.188 586.646,605.521 584.5,606C585.861,607.584 586.528,609.418 586.5,611.5C583.951,611.441 581.951,612.441 580.5,614.5C579.396,613.369 579.729,612.535 581.5,612C578.518,611.502 575.518,611.335 572.5,611.5C573.027,607.045 571.527,606.379 568,609.5C567.581,605.148 566.914,604.815 566,608.5C565.15,606.99 564.317,605.49 563.5,604C564.007,601.659 565.174,601.159 567,602.5C567.846,600.153 569.346,598.32 571.5,597C569.139,596.803 567.472,595.636 566.5,593.5C564.167,594.743 563.5,596.409 564.5,598.5C562.235,599.647 559.902,599.814 557.5,599C560.473,597.776 561.14,595.776 559.5,593C560.167,592.333 560.833,591.667 561.5,591C558.918,591.255 556.252,591.422 553.5,591.5C553.413,588.402 553.913,588.068 555,590.5C555.79,588.21 557.124,587.877 559,589.5C560.667,588.833 562.333,588.167 564,587.5C565.645,590.039 567.145,590.039 568.5,587.5C567.092,586.757 565.759,585.923 564.5,585C566.01,581.674 565.01,580.007 561.5,580C562.38,581.356 562.714,582.856 562.5,584.5C560.856,584.714 559.356,584.38 558,583.5C557.383,584.449 557.549,585.282 558.5,586C557.584,586.374 556.75,586.874 556,587.5C555.333,586.167 554.667,586.167 554,587.5C553.667,586.5 553.333,585.5 553,584.5C551.796,585.859 550.296,586.859 548.5,587.5C549.109,590.837 550.276,591.17 552,588.5C552.497,591.146 552.664,593.813 552.5,596.5L549.5,596.5C549.657,595.127 549.49,593.793 549,592.5C548.308,593.025 547.808,593.692 547.5,594.5C548.309,596.071 548.643,597.738 548.5,599.5L545.5,599.5C545.286,597.856 545.62,596.356 546.5,595C544.527,594.505 542.527,594.338 540.5,594.5L540.5,591.5L545.5,591.5C545.343,590.127 545.51,588.793 546,587.5C547.666,588.34 547.833,587.84 546.5,586C548.24,584.316 549.406,582.482 550,580.5C547.399,583.304 545.899,582.971 545.5,579.5C544.325,579.719 543.325,579.386 542.5,578.5C543.274,577.289 544.107,577.289 545,578.5C546.391,576.285 548.057,576.285 550,578.5C550.022,575.897 549.856,573.231 549.5,570.5C552.094,570.083 554.594,568.75 557,566.5C557.743,564.559 557.576,562.726 556.5,561C560.519,561.197 562.519,563.364 562.5,567.5L557.5,567.5L557.5,574.5C561.601,575.366 565.601,575.366 569.5,574.5L569.5,577.5C573.876,578.112 574.543,576.946 571.5,574C573.623,572.806 575.957,572.14 578.5,572C577.833,571.333 577.167,570.667 576.5,570C577.212,568.575 577.379,567.075 577,565.5C579.213,566.802 581.546,567.802 584,568.5C584.483,567.552 584.649,566.552 584.5,565.5C580.563,564.947 576.896,564.614 573.5,564.5C574.966,562.343 576.8,562.01 579,563.5C579.651,561.765 579.485,560.098 578.5,558.5C576.049,556.913 574.049,554.913 572.5,552.5C573.421,550.87 574.255,549.203 575,547.5C575.667,548.833 576.333,548.833 577,547.5C577.498,544.518 577.665,541.518 577.5,538.5L574.5,538.5C574.34,536.801 574.506,535.134 575,533.5C576.418,535.363 578.251,535.863 580.5,535C582.041,533.629 583.375,532.129 584.5,530.5Z" style="fill:rgb(31,18,68);"/>
    </g>
    <g>
        <path d="M302.5,575.5C304.031,580.25 304.698,585.25 304.5,590.5C303.275,585.71 302.608,580.71 302.5,575.5Z" style="fill:rgb(184,161,227);"/>
    </g>
    <g>
        <path d="M803.5,629.5C804.166,634.656 804.499,639.989 804.5,645.5C804.689,653.394 804.022,661.061 802.5,668.5C802.84,665.856 802.173,663.523 800.5,661.5C801.325,660.614 802.325,660.281 803.5,660.5L803.5,629.5Z" style="fill:rgb(64,52,96);"/>
    </g>
    <g>
        <path d="M925.5,646.5C910.623,694.441 883.29,733.608 843.5,764C832.621,771.103 821.288,777.103 809.5,782C867.328,733.826 908.161,673.992 932,602.5L933,601.5C933.667,604.5 933.667,607.5 933,610.5C931.324,620.204 929.49,629.87 927.5,639.5C927.59,642.152 926.924,644.485 925.5,646.5Z" style="fill:rgb(177,154,248);"/>
    </g>
    <g>
        <path d="M797.5,696.5C802.149,719.28 797.982,740.28 785,759.5C771.921,779.913 755.421,797.08 735.5,811C732.299,813.267 728.966,814.934 725.5,816C741.256,801.913 754.423,785.747 765,767.5C771.546,755.076 777.546,742.409 783,729.5C785.098,723.977 786.598,718.311 787.5,712.5C790.239,709.767 792.573,706.767 794.5,703.5C795.651,701.221 796.651,698.888 797.5,696.5Z" style="fill:rgb(177,154,248);"/>
    </g>
    <g>
        <path d="M729.5,903.5C748.208,903.081 766.875,903.581 785.5,905C807.514,912.174 817.014,927.34 814,950.5C811.011,962.999 803.844,972.166 792.5,978C799.539,987.905 806.706,997.738 814,1007.5C815.805,1017.35 811.805,1023.02 802,1024.5C799.268,1024.39 796.768,1023.55 794.5,1022C784.385,1008.94 774.885,995.438 766,981.5C759.333,980.167 752.667,980.167 746,981.5L745,1016.5C739.321,1025.17 732.321,1026.5 724,1020.5L721,1014.5C720.333,981.167 720.333,947.833 721,914.5C722.553,909.788 725.386,906.121 729.5,903.5ZM778.5,926.5C767.86,925.43 757.193,925.263 746.5,926C745.513,936.752 745.18,947.585 745.5,958.5C756.09,959.642 766.757,959.808 777.5,959C782.598,957.567 786.098,954.4 788,949.5C790.798,939.123 787.632,931.456 778.5,926.5Z" style="fill:rgb(33,20,74);"/>
    </g>
    <g>
        <path d="M317.5,985.5C314.551,982.212 311.551,978.879 308.5,975.5C304.806,978.527 301.473,981.86 298.5,985.5C297.668,995.817 297.168,1006.15 297,1016.5C291.495,1025.36 284.495,1026.7 276,1020.5C275.333,1019.17 274.667,1017.83 274,1016.5C273.333,981.167 273.333,945.833 274,910.5C278.487,903.451 284.654,901.617 292.5,905C294.79,906.777 296.457,908.944 297.5,911.5L297.5,913.5C297.167,927.183 297.501,940.85 298.5,954.5C299.107,954.376 299.44,954.043 299.5,953.5C313.341,936.703 328.008,920.537 343.5,905C350.885,902.03 357.052,903.53 362,909.5C364,912.833 364,916.167 362,919.5C349.786,932.045 337.953,944.878 326.5,958C339.945,974.45 353.779,990.616 368,1006.5C370.783,1019.06 365.616,1024.9 352.5,1024C351.167,1023.33 349.833,1022.67 348.5,1022C337.581,1010.25 327.248,998.088 317.5,985.5Z" style="fill:rgb(30,18,73);"/>
    </g>
    <g>
        <path d="M446.5,1022.5C443.428,1021.7 441.762,1019.7 441.5,1016.5C440.167,981.167 440.167,945.833 441.5,910.5C444.804,903.892 450.137,901.725 457.5,904C461.431,906.042 463.764,909.209 464.5,913.5L464.5,1014.5C460.989,1023.26 454.989,1025.93 446.5,1022.5Z" style="fill:rgb(34,21,76);"/>
    </g>
    <g>
        <path d="M545.5,903.5C552.016,902.237 557.516,903.904 562,908.5C572.796,935.721 583.296,963.055 593.5,990.5C604.233,963.137 615.066,935.803 626,908.5C630.916,903.28 636.75,902.113 643.5,905C648.211,909.14 649.711,914.306 648,920.5C634.862,952.914 621.529,985.247 608,1017.5C602.643,1024.08 595.809,1026.25 587.5,1024C583.026,1021.86 579.526,1018.69 577,1014.5C564.592,982.691 551.925,951.024 539,919.5C537.607,912.631 539.774,907.297 545.5,903.5Z" style="fill:rgb(32,19,73);"/>
    </g>
    <g>
        <path d="M778.5,926.5C767.86,925.43 757.193,925.263 746.5,926C745.513,936.752 745.18,947.585 745.5,958.5C744.698,957.048 744.198,955.382 744,953.5C737.349,950.237 736.849,946.237 742.5,941.5C743.66,937.541 743.827,933.541 743,929.5C742.031,932.717 740.364,932.717 738,929.5C736.951,930.517 735.784,930.684 734.5,930C734.912,926.563 733.245,924.23 729.5,923C732.167,922.667 734.833,922.333 737.5,922C739.49,919.616 741.824,918.783 744.5,919.5C745.853,918.315 747.02,916.981 748,915.5C749.699,916.406 751.533,916.739 753.5,916.5C753.007,918.806 752.674,921.139 752.5,923.5C756.182,923.665 759.848,923.499 763.5,923C764.337,921.989 764.67,920.822 764.5,919.5C766.833,918.167 769.167,916.833 771.5,915.5L771.5,912.5C770.178,912.67 769.011,912.337 768,911.5C768.128,909.555 767.962,907.722 767.5,906C771.211,905.175 774.878,905.341 778.5,906.5C777.875,909.185 776.875,911.685 775.5,914C775.667,914.5 775.833,915 776,915.5C776.718,914.549 777.551,914.383 778.5,915C777.554,918.034 776.554,921.034 775.5,924C776.833,924.667 778.167,925.333 779.5,926C779.272,926.399 778.938,926.565 778.5,926.5Z" style="fill:rgb(30,18,67);"/>
    </g>
    <g>
        <path d="M297.5,911.5C298.167,925.5 298.833,939.5 299.5,953.5C299.44,954.043 299.107,954.376 298.5,954.5C297.501,940.85 297.167,927.183 297.5,913.5L297.5,911.5Z" style="fill:rgb(127,118,148);"/>
    </g>
    <g>
        <path d="M975.5,971.5C980.405,983.026 985.239,994.693 990,1006.5C992.158,1020.68 986.325,1026.18 972.5,1023C970.291,1021.13 968.458,1018.96 967,1016.5C964.866,1011.24 963.033,1005.91 961.5,1000.5C943.497,1000.33 925.497,1000.5 907.5,1001C905.204,1006.43 903.037,1011.93 901,1017.5C894.74,1025.82 887.74,1026.49 880,1019.5C877.144,1015.36 876.81,1011.03 879,1006.5C889.906,979.027 901.072,951.694 912.5,924.5C914.021,919.784 915.855,915.117 918,910.5C926.808,901.243 936.641,900.077 947.5,907C950.106,908.938 951.939,911.438 953,914.5C960.513,933.521 968.013,952.521 975.5,971.5ZM926.5,950.5C923.305,958.752 920.305,967.086 917.5,975.5L916.5,978.5L951.5,978.5C951.627,977.74 951.619,978.041 951.475,977.401C951.315,976.694 950.99,975.061 950.5,974.5C945.475,960.248 939.975,946.248 934,932.5C931.227,938.381 928.727,944.381 926.5,950.5Z" style="fill:rgb(33,19,74);"/>
    </g>
</svg>
